HIERARCHY
ROOT Hips
{
	OFFSET 0.00 0.00 0.00
	CHANNELS 6 Xposition Yposition Zposition Xrotation Yrotation Zrotation
	JOINT Spine
	{
		OFFSET 0.00000 1.66264 2.49395
		CHANNELS 3 Xrotation Yrotation Zrotation
		JOINT Spine1
		{
			OFFSET 0.00000 0.57743 3.27475
			CHANNELS 3 Xrotation Yrotation Zrotation
			JOINT Spine2
			{
				OFFSET 0.00000 0.28982 3.31262
				CHANNELS 3 Xrotation Yrotation Zrotation
				JOINT Spine3
				{
					OFFSET 0.00000 0.00000 3.32527
					CHANNELS 3 Xrotation Yrotation Zrotation
					JOINT Neck
					{
						OFFSET 0.00000 -1.24697 8.72884
						CHANNELS 3 Xrotation Yrotation Zrotation
						JOINT Head
						{
							OFFSET 0.00000 -0.79396 4.50279
							CHANNELS 3 Xrotation Yrotation Zrotation
							End Site
							{
								OFFSET 0.00000 0.00001 5.38279
							}
						}
					}
					JOINT RightShoulder
					{
						OFFSET -1.14808 -1.91346 6.19963
						CHANNELS 3 Xrotation Yrotation Zrotation
						JOINT RightArm
						{
							OFFSET -5.70212 0.00000 0.00000
							CHANNELS 3 Xrotation Yrotation Zrotation
							JOINT RightForeArm
							{
								OFFSET -10.82477 0.00000 0.00000
								CHANNELS 3 Xrotation Yrotation Zrotation
								JOINT RightHand
								{
									OFFSET -10.02856 0.00000 0.00000
									CHANNELS 3 Xrotation Yrotation Zrotation
									JOINT RightHandEnd
									{
										OFFSET -2.68345 0.00000 0.00000
										CHANNELS 3 Xrotation Yrotation Zrotation
										End Site
										{
											OFFSET -2.68345 0.00000 0.00000
										}
									}
									JOINT RightHandThumb1
									{
										OFFSET -1.07338 -1.78897 -0.71559
										CHANNELS 3 Yrotation Xrotation Zrotation
										End Site
										{
											OFFSET -2.59202 -0.69453 0.00000
										}
									}
								}
							}
						}
					}
					JOINT LeftShoulder
					{
						OFFSET 1.14808 -1.91346 6.19963
						CHANNELS 3 Xrotation Yrotation Zrotation
						JOINT LeftArm
						{
							OFFSET 5.70212 0.00000 0.00000
							CHANNELS 3 Xrotation Yrotation Zrotation
							JOINT LeftForeArm
							{
								OFFSET 10.82477 0.00000 0.00000
								CHANNELS 3 Xrotation Yrotation Zrotation
								JOINT LeftHand
								{
									OFFSET 10.02856 0.00000 0.00000
									CHANNELS 3 Xrotation Yrotation Zrotation
									JOINT LeftHandEnd
									{
										OFFSET 2.68345 0.00000 0.00000
										CHANNELS 3 Xrotation Yrotation Zrotation
										End Site
										{
											OFFSET 2.68345 0.00000 0.00000
										}
									}
									JOINT LeftHandThumb1
									{
										OFFSET 1.07338 -1.78897 -0.71559
										CHANNELS 3 Yrotation Xrotation Zrotation
										End Site
										{
											OFFSET 2.59202 -0.69453 0.00000
										}
									}
								}
							}
						}
					}
				}
			}
		}
	}
	JOINT RightUpLeg
	{
		OFFSET -3.40597 0.00000 -0.99500
		CHANNELS 3 Xrotation Yrotation Zrotation
		JOINT RightLeg
		{
			OFFSET 0.00001 0.00000 -17.05191
			CHANNELS 3 Xrotation Yrotation Zrotation
			JOINT RightFoot
			{
				OFFSET 0.00001 0.00000 -15.93260
				CHANNELS 3 Xrotation Yrotation Zrotation
				JOINT RightToeBase
				{
					OFFSET 0.00000 -4.98016 -1.81263
					CHANNELS 3 Xrotation Yrotation Zrotation
					End Site
					{
						OFFSET 0.00000 -2.75539 -0.00000
					}
				}
			}
		}
	}
	JOINT LeftUpLeg
	{
		OFFSET 3.40597 0.00000 -0.99500
		CHANNELS 3 Xrotation Yrotation Zrotation
		JOINT LeftLeg
		{
			OFFSET 0.00001 0.00000 -17.05191
			CHANNELS 3 Xrotation Yrotation Zrotation
			JOINT LeftFoot
			{
				OFFSET 0.00001 0.00000 -15.93260
				CHANNELS 3 Xrotation Yrotation Zrotation
				JOINT LeftToeBase
				{
					OFFSET 0.00000 -4.98016 -1.81263
					CHANNELS 3 Xrotation Yrotation Zrotation
					End Site
					{
						OFFSET 0.00000 -2.75539 -0.00000
					}
				}
			}
		}
	}
}
MOTION
Frames: 13
Frame Time: 0.008342
 8.1699 -119.7544 35.0803 -2.4952 0.0402 -176.8056 -2.9211 0.6335 0.0927 -1.4393 -0.3165 0.0682 -2.5379 0.1178 1.5802 -0.3687 0.1148 -0.0078 5.6430 1.0827 -2.1532 -2.0728 0.0282 -5.1937 -5.4261 14.3309 1.8178 -25.8583 -13.0576 -11.5148 0.0000 0.0000 18.9044 -16.0174 24.4841 3.6995 -0.0000 0.0000 0.0000 0.0000 -0.0000 0.0000 -1.8867 -12.2335 1.0859 -11.7923 16.7392 -3.9629 -0.0000 -0.0000 -13.8376 -13.4655 -27.2161 2.6910 0.0000 -0.0000 -0.0000 0.0000 0.0000 0.0000 -2.6297 -0.1753 -43.0252 1.4447 0.0000 0.0000 -8.2503 -2.5184 0.8746 3.9517 0.0000 0.0000 0.5189 1.6456 26.7344 -3.7332 0.0000 -0.0000 -4.3061 14.6772 15.1892 -1.2496 0.0000 -0.0000
 8.1696 -119.7536 35.0804 -2.4957 0.0392 -176.8048 -2.9259 0.6322 0.0934 -1.4397 -0.3135 0.0680 -2.5363 0.1163 1.5807 -0.3673 0.1165 -0.0088 5.6470 1.0890 -2.1600 -2.0799 0.0295 -5.2093 -5.4253 14.3249 1.8149 -25.8677 -13.0597 -11.5151 0.0000 0.0000 18.9084 -16.0187 24.4817 3.7003 -0.0000 -0.0000 -0.0000 -0.0000 -0.0000 -0.0000 -1.8869 -12.2302 1.0890 -11.7856 16.7388 -3.9659 -0.0000 -0.0000 -13.8404 -13.4567 -27.2190 2.7010 0.0000 0.0000 -0.0000 0.0000 0.0000 0.0000 -2.6289 -0.1754 -43.0216 1.4462 0.0000 0.0000 -8.2548 -2.5282 0.8685 3.9648 0.0000 0.0000 0.5196 1.6450 26.7349 -3.7329 0.0000 -0.0000 -4.3071 14.6763 15.1882 -1.2483 0.0000 -0.0000
 8.1692 -119.7525 35.0804 -2.4959 0.0376 -176.8039 -2.9316 0.6305 0.0940 -1.4410 -0.3105 0.0680 -2.5335 0.1151 1.5811 -0.3658 0.1187 -0.0098 5.6518 1.0981 -2.1694 -2.0877 0.0308 -5.2293 -5.4240 14.3180 1.8115 -25.8771 -13.0639 -11.5140 0.0000 0.0000 18.9118 -16.0187 24.4803 3.7004 -0.0000 0.0000 0.0000 0.0000 -0.0000 -0.0000 -1.8855 -12.2269 1.0936 -11.7805 16.7399 -3.9695 -0.0000 -0.0000 -13.8437 -13.4490 -27.2216 2.7083 -0.0000 0.0000 -0.0000 0.0000 -0.0000 0.0000 -2.6275 -0.1758 -43.0162 1.4481 0.0000 0.0000 -8.2598 -2.5391 0.8604 3.9780 0.0000 0.0000 0.5208 1.6439 26.7333 -3.7322 0.0000 -0.0000 -4.3098 14.6736 15.1893 -1.2465 0.0000 -0.0000
 8.1689 -119.7508 35.0804 -2.4931 0.0329 -176.8030 -2.9360 0.6237 0.0950 -1.4421 -0.3022 0.0683 -2.5311 0.1102 1.5819 -0.3636 0.1230 -0.0131 5.6574 1.1082 -2.1813 -2.0968 0.0328 -5.2535 -5.4191 14.3080 1.8041 -25.8879 -13.0705 -11.5057 0.0000 0.0000 18.9118 -16.0175 24.4785 3.7019 -0.0000 -0.0000 0.0000 -0.0000 -0.0000 0.0000 -1.8819 -12.2263 1.1015 -11.7769 16.7443 -3.9752 -0.0000 -0.0000 -13.8468 -13.4404 -27.2259 2.7147 0.0000 0.0000 -0.0000 0.0000 -0.0000 0.0000 -2.6214 -0.1805 -43.0081 1.4475 0.0000 0.0000 -8.2629 -2.5527 0.8496 3.9907 0.0000 0.0000 0.5264 1.6395 26.7271 -3.7328 0.0000 -0.0000 -4.3148 14.6675 15.1954 -1.2455 0.0000 -0.0000
 8.1682 -119.7492 35.0804 -2.4934 0.0320 -176.8014 -2.9418 0.6249 0.0948 -1.4462 -0.3018 0.0679 -2.5291 0.1111 1.5812 -0.3607 0.1244 -0.0126 5.6641 1.1240 -2.1948 -2.1056 0.0332 -5.2824 -5.4174 14.2999 1.8024 -25.8975 -13.0764 -11.5060 0.0000 0.0000 18.9173 -16.0115 24.4746 3.6993 0.0000 -0.0000 -0.0000 -0.0000 -0.0000 0.0000 -1.8808 -12.2206 1.1050 -11.7729 16.7453 -3.9755 -0.0000 -0.0000 -13.8533 -13.4337 -27.2287 2.7198 -0.0000 0.0000 -0.0000 -0.0000 -0.0000 0.0000 -2.6195 -0.1795 -43.0037 1.4504 0.0000 0.0000 -8.2691 -2.5634 0.8425 4.0020 0.0000 0.0000 0.5277 1.6393 26.7263 -3.7307 0.0000 -0.0000 -4.3189 14.6631 15.1955 -1.2442 0.0000 -0.0000
 8.1675 -119.7471 35.0804 -2.4913 0.0299 -176.8005 -2.9483 0.6244 0.0947 -1.4499 -0.3017 0.0684 -2.5235 0.1129 1.5803 -0.3593 0.1268 -0.0128 5.6709 1.1399 -2.2101 -2.1144 0.0341 -5.3129 -5.4110 14.2890 1.7951 -25.9064 -13.0847 -11.4950 0.0000 0.0000 18.9168 -16.0049 24.4728 3.6980 -0.0000 0.0000 -0.0000 0.0000 -0.0000 0.0000 -1.8776 -12.2164 1.1114 -11.7689 16.7478 -3.9796 -0.0000 -0.0000 -13.8581 -13.4319 -27.2324 2.7212 -0.0000 0.0000 0.0000 0.0000 -0.0000 0.0000 -2.6143 -0.1800 -42.9963 1.4532 0.0000 0.0000 -8.2750 -2.5745 0.8333 4.0116 0.0000 0.0000 0.5330 1.6380 26.7217 -3.7302 0.0000 -0.0000 -4.3245 14.6568 15.2004 -1.2436 0.0000 -0.0000
 8.1669 -119.7438 35.0804 -2.4724 0.0260 -176.7995 -2.9388 0.6216 0.0947 -1.4517 -0.3007 0.0688 -2.5225 0.1137 1.5791 -0.3571 0.1296 -0.0133 5.6792 1.1559 -2.2254 -2.1250 0.0356 -5.3449 -5.4018 14.2816 1.7867 -25.9156 -13.0980 -11.4831 0.0000 0.0000 18.9151 -15.9974 24.4698 3.6968 -0.0000 -0.0000 -0.0000 0.0000 -0.0000 0.0000 -1.8722 -12.2163 1.1174 -11.7679 16.7547 -3.9813 -0.0000 -0.0000 -13.8639 -13.4320 -27.2339 2.7204 -0.0000 -0.0000 0.0000 0.0000 0.0000 0.0000 -2.5881 -0.1850 -42.9899 1.4509 0.0000 0.0000 -8.2784 -2.5884 0.8249 4.0195 0.0000 0.0000 0.5592 1.6344 26.7144 -3.7335 0.0000 -0.0000 -4.3316 14.6506 15.2079 -1.2437 0.0000 -0.0000
 8.1660 -119.7416 35.0803 -2.4735 0.0251 -176.7987 -2.9472 0.6227 0.0943 -1.4573 -0.2999 0.0683 -2.5194 0.1149 1.5785 -0.3544 0.1311 -0.0133 5.6857 1.1747 -2.2406 -2.1304 0.0339 -5.3757 -5.3968 14.2712 1.7837 -25.9213 -13.1059 -11.4750 0.0000 0.0000 18.9177 -15.9876 24.4655 3.6928 0.0000 -0.0000 -0.0000 -0.0000 -0.0000 -0.0000 -1.8680 -12.2099 1.1224 -11.7677 16.7566 -3.9820 -0.0000 -0.0000 -13.8706 -13.4382 -27.2358 2.7138 -0.0000 -0.0000 0.0000 -0.0000 0.0000 0.0000 -2.5862 -0.1838 -42.9853 1.4540 0.0000 0.0000 -8.2846 -2.5958 0.8193 4.0254 0.0000 0.0000 0.5608 1.6347 26.7134 -3.7317 0.0000 -0.0000 -4.3371 14.6442 15.2093 -1.2445 0.0000 -0.0000
 8.1651 -119.7391 35.0802 -2.4740 0.0236 -176.7990 -2.9576 0.6229 0.0943 -1.4620 -0.2992 0.0686 -2.5122 0.1167 1.5778 -0.3539 0.1337 -0.0140 5.6904 1.1905 -2.2546 -2.1336 0.0322 -5.4037 -5.3877 14.2586 1.7737 -25.9247 -13.1158 -11.4534 0.0000 0.0000 18.9135 -15.9815 24.4650 3.6924 -0.0000 -0.0000 0.0000 0.0000 -0.0000 0.0000 -1.8628 -12.2051 1.1295 -11.7681 16.7598 -3.9861 -0.0000 -0.0000 -13.8756 -13.4488 -27.2380 2.7040 -0.0000 0.0000 0.0000 0.0000 -0.0000 0.0000 -2.5837 -0.1829 -42.9773 1.4576 0.0000 0.0000 -8.2908 -2.6018 0.8117 4.0295 0.0000 0.0000 0.5643 1.6346 26.7091 -3.7314 0.0000 -0.0000 -4.3436 14.6373 15.2153 -1.2459 0.0000 -0.0000
 8.1642 -119.7364 35.0801 -2.4712 0.0218 -176.7999 -2.9633 0.6220 0.0947 -1.4660 -0.2981 0.0691 -2.5096 0.1185 1.5776 -0.3515 0.1365 -0.0149 5.6938 1.2032 -2.2671 -2.1346 0.0300 -5.4275 -5.3766 14.2472 1.7598 -25.9286 -13.1281 -11.4271 0.0000 0.0000 18.9078 -15.9761 24.4654 3.6927 0.0000 0.0000 0.0000 0.0000 -0.0000 0.0000 -1.8561 -12.2035 1.1359 -11.7718 16.7664 -3.9888 -0.0000 -0.0000 -13.8810 -13.4587 -27.2390 2.6928 0.0000 0.0000 -0.0000 -0.0000 -0.0000 0.0000 -2.5767 -0.1833 -42.9705 1.4593 0.0000 0.0000 -8.2958 -2.6069 0.8061 4.0325 0.0000 0.0000 0.5721 1.6341 26.7058 -3.7324 0.0000 -0.0000 -4.3500 14.6309 15.2207 -1.2480 0.0000 -0.0000
 8.1633 -119.7326 35.0800 -2.4526 0.0199 -176.8014 -2.9547 0.6202 0.0952 -1.4677 -0.2965 0.0691 -2.5087 0.1196 1.5773 -0.3492 0.1388 -0.0154 5.6969 1.2130 -2.2761 -2.1365 0.0280 -5.4464 -5.3643 14.2413 1.7459 -25.9313 -13.1439 -11.4010 0.0000 0.0000 18.9014 -15.9753 24.4666 3.6951 0.0000 -0.0000 -0.0000 0.0000 -0.0000 -0.0000 -1.8495 -12.2052 1.1416 -11.7748 16.7759 -3.9908 -0.0000 -0.0000 -13.8863 -13.4708 -27.2361 2.6808 -0.0000 -0.0000 0.0000 0.0000 -0.0000 0.0000 -2.5502 -0.1862 -42.9664 1.4565 0.0000 0.0000 -8.2994 -2.6133 0.8037 4.0344 0.0000 0.0000 0.5997 1.6334 26.7029 -3.7370 0.0000 -0.0000 -4.3564 14.6271 15.2261 -1.2504 0.0000 -0.0000
 8.1623 -119.7301 35.0799 -2.4541 0.0191 -176.8018 -2.9646 0.6218 0.0944 -1.4735 -0.2958 0.0692 -2.5014 0.1208 1.5768 -0.3488 0.1394 -0.0161 5.6971 1.2215 -2.2811 -2.1329 0.0236 -5.4590 -5.3603 14.2332 1.7404 -25.9306 -13.1512 -11.3835 0.0000 0.0000 18.9028 -15.9767 24.4641 3.6968 -0.0000 -0.0000 -0.0000 0.0000 -0.0000 0.0000 -1.8456 -12.1998 1.1463 -11.7741 16.7785 -3.9947 -0.0000 -0.0000 -13.8900 -13.4821 -27.2340 2.6673 -0.0000 0.0000 -0.0000 0.0000 -0.0000 0.0000 -2.5482 -0.1850 -42.9602 1.4587 0.0000 0.0000 -8.3050 -2.6136 0.7985 4.0367 0.0000 0.0000 0.6021 1.6341 26.7001 -3.7365 0.0000 -0.0000 -4.3627 14.6225 15.2303 -1.2524 0.0000 -0.0000
 8.1614 -119.7276 35.0797 -2.4551 0.0183 -176.8030 -2.9718 0.6227 0.0941 -1.4784 -0.2951 0.0692 -2.4979 0.1222 1.5765 -0.3469 0.1402 -0.0167 5.6957 1.2253 -2.2825 -2.1284 0.0184 -5.4651 -5.3566 14.2265 1.7333 -25.9318 -13.1588 -11.3661 0.0000 0.0000 18.9060 -15.9782 24.4633 3.6969 0.0000 -0.0000 -0.0000 -0.0000 0.0000 0.0000 -1.8421 -12.1966 1.1501 -11.7724 16.7826 -3.9985 -0.0000 -0.0000 -13.8940 -13.4902 -27.2309 2.6572 0.0000 -0.0000 -0.0000 0.0000 0.0000 0.0000 -2.5459 -0.1841 -42.9543 1.4606 0.0000 0.0000 -8.3104 -2.6123 0.7944 4.0386 0.0000 0.0000 0.6047 1.6346 26.6988 -3.7354 0.0000 -0.0000 -4.3693 14.6181 15.2339 -1.2540 0.0000 -0.0000
